<?xml version="1.0" encoding="UTF-8" standalone="no"?>
<svg
   viewBox="0 0 448 512"
   version="1.1"
   id="svg4"
   sodipodi:docname="mastodon.svg"
   inkscape:version="1.1.1 (3bf5ae0d25, 2021-09-20)"
   xmlns:inkscape="http://www.inkscape.org/namespaces/inkscape"
   xmlns:sodipodi="http://sodipodi.sourceforge.net/DTD/sodipodi-0.dtd"
   xmlns="http://www.w3.org/2000/svg"
   xmlns:svg="http://www.w3.org/2000/svg">
  <defs
     id="defs8">
    <filter
       style="color-interpolation-filters:sRGB;"
       inkscape:label="Colorize"
       id="filter4718"
       x="-0.00029882025"
       y="-0.00027876457"
       width="1.0005976"
       height="1.0005575">
      <feColorMatrix
         values="1"
         type="saturate"
         result="colormatrix1"
         id="feColorMatrix4702" />
      <feColorMatrix
         values="1 0 0 0 0 0 1 0 0 0 0 0 1 0 0 -1 0.5 0.5 1 0 "
         in="SourceGraphic"
         result="colormatrix2"
         id="feColorMatrix4704" />
      <feFlood
         flood-color="rgb(94,157,200)"
         flood-opacity="1"
         result="flood"
         id="feFlood4706" />
      <feComposite
         in2="colormatrix2"
         operator="out"
         result="composite1"
         id="feComposite4708" />
      <feMerge
         result="merge"
         id="feMerge4714">
        <feMergeNode
           in="colormatrix1"
           id="feMergeNode4710" />
        <feMergeNode
           in="composite1"
           id="feMergeNode4712" />
      </feMerge>
      <feComposite
         in="merge"
         in2="SourceGraphic"
         operator="in"
         result="fbSourceGraphic"
         id="feComposite4716" />
      <feColorMatrix
         result="fbSourceGraphicAlpha"
         in="fbSourceGraphic"
         values="0 0 0 -1 0 0 0 0 -1 0 0 0 0 -1 0 0 0 0 1 0"
         id="feColorMatrix4772" />
      <feComposite
         in2="fbSourceGraphic"
         id="feComposite4774"
         operator="arithmetic"
         k1="0"
         k2="9.91018"
         result="composite1"
         in="fbSourceGraphic" />
      <feColorMatrix
         id="feColorMatrix4776"
         in="composite1"
         values="1"
         type="saturate"
         result="colormatrix1" />
      <feFlood
         id="feFlood4778"
         flood-opacity="1"
         flood-color="rgb(94,157,200)"
         result="flood1" />
      <feBlend
         in2="colormatrix1"
         id="feBlend4780"
         in="flood1"
         mode="multiply"
         result="blend1" />
      <feBlend
         in2="blend1"
         id="feBlend4782"
         mode="screen"
         result="blend2" />
      <feColorMatrix
         id="feColorMatrix4784"
         in="blend2"
         values="1"
         type="saturate"
         result="colormatrix2" />
      <feComposite
         in2="fbSourceGraphic"
         id="feComposite4786"
         in="colormatrix2"
         operator="in"
         k2="1"
         result="fbSourceGraphic" />
      <feColorMatrix
         result="fbSourceGraphicAlpha"
         in="fbSourceGraphic"
         values="0 0 0 -1 0 0 0 0 -1 0 0 0 0 -1 0 0 0 0 1 0"
         id="feColorMatrix4806" />
      <feComposite
         in2="fbSourceGraphic"
         id="feComposite4808"
         operator="arithmetic"
         k1="0"
         k2="9.91018"
         result="composite1"
         in="fbSourceGraphic" />
      <feColorMatrix
         id="feColorMatrix4810"
         in="composite1"
         values="1"
         type="saturate"
         result="colormatrix1" />
      <feFlood
         id="feFlood4812"
         flood-opacity="1"
         flood-color="rgb(94,157,200)"
         result="flood1" />
      <feBlend
         in2="colormatrix1"
         id="feBlend4814"
         in="flood1"
         mode="multiply"
         result="blend1" />
      <feBlend
         in2="blend1"
         id="feBlend4816"
         mode="screen"
         result="blend2" />
      <feColorMatrix
         id="feColorMatrix4818"
         in="blend2"
         values="1"
         type="saturate"
         result="colormatrix2" />
      <feComposite
         in2="fbSourceGraphic"
         id="feComposite4820"
         in="colormatrix2"
         operator="in"
         k2="1"
         result="composite2" />
      <feGaussianBlur
         stdDeviation="0.052044383"
         id="feGaussianBlur6424" />
    </filter>
  </defs>
  <sodipodi:namedview
     id="namedview6"
     pagecolor="#ffffff"
     bordercolor="#666666"
     borderopacity="1.0"
     inkscape:pageshadow="2"
     inkscape:pageopacity="0.0"
     inkscape:pagecheckerboard="0"
     showgrid="false"
     inkscape:zoom="1.0636576"
     inkscape:cx="224.22629"
     inkscape:cy="159.35579"
     inkscape:window-width="1280"
     inkscape:window-height="961"
     inkscape:window-x="-8"
     inkscape:window-y="-8"
     inkscape:window-maximized="1"
     inkscape:current-layer="svg4" />
  <!--! Font Awesome Pro 6.4.2 by @fontawesome - https://fontawesome.com License - https://fontawesome.com/license (Commercial License) Copyright 2023 Fonticons, Inc. -->
  <path
     d="M433 179.11c0-97.2-63.71-125.7-63.71-125.7-62.52-28.7-228.56-28.4-290.48 0 0 0-63.72 28.5-63.72 125.7 0 115.7-6.6 259.4 105.63 289.1 40.51 10.7 75.32 13 103.33 11.4 50.81-2.8 79.32-18.1 79.32-18.1l-1.7-36.9s-36.31 11.4-77.12 10.1c-40.41-1.4-83-4.4-89.63-54a102.54 102.54 0 0 1-.9-13.9c85.63 20.9 158.65 9.1 178.75 6.7 56.12-6.7 105-41.3 111.23-72.9 9.8-49.8 9-121.5 9-121.5zm-75.12 125.2h-46.63v-114.2c0-49.7-64-51.6-64 6.9v62.5h-46.33V197c0-58.5-64-56.6-64-6.9v114.2H90.19c0-122.1-5.2-147.9 18.41-175 25.9-28.9 79.82-30.8 103.83 6.1l11.6 19.5 11.6-19.5c24.11-37.1 78.12-34.8 103.83-6.1 23.71 27.3 18.4 53 18.4 175z"
     id="path2"
     style="filter:url(#filter4718);fill:#429ec8;fill-opacity:1" />
  <path
     style="opacity:1;fill:#5e9dc8;fill-opacity:1;stroke-width:0.940152"
     d="m 188.97058,479.39768 c -1.80979,-0.21156 -8.15582,-0.84722 -14.10228,-1.41255 -22.4561,-2.13493 -54.28966,-8.98586 -69.10118,-14.87135 C 59.329309,444.66132 31.425401,400.72987 21.190814,329.95825 16.646736,298.53619 14.63041,253.10513 15.291293,197.03259 15.779424,155.61719 16.660056,146.71702 22.123641,127.98095 30.78869,98.26623 49.083674,72.350128 71.726149,57.715589 87.895396,47.264901 119.8821,39.43945 165.7494,34.713082 c 19.53331,-2.012797 75.54112,-2.834506 97.13407,-1.425086 32.64712,2.13095 56.59939,5.477821 77.92169,10.888057 26.54903,6.73645 38.50761,13.1814 53.81208,29.001463 17.61683,18.210338 28.47946,39.730874 34.71089,68.767694 2.21237,10.30909 2.46545,13.76632 2.88712,39.43989 0.82081,49.97458 -4.21028,110.10587 -10.52855,125.83669 -5.31403,13.23054 -16.35926,26.05084 -32.05298,37.20422 -10.29895,7.31937 -29.48962,16.85168 -42.71757,21.2185 -24.45792,8.07408 -64.62759,12.77496 -109.01054,12.75703 -33.85095,-0.0136 -56.73281,-2.14321 -86.35068,-8.03637 -8.94424,-1.77966 -16.62511,-3.23575 -17.06863,-3.23575 -1.05768,0 -0.29418,9.81817 1.49759,19.25814 1.97449,10.40262 6.40774,19.49583 12.94857,26.5593 13.59684,14.68331 32.83719,20.37594 72.94345,21.58171 11.14197,0.33498 22.7582,0.12708 29.61479,-0.53002 12.49654,-1.1976 35.30267,-5.10924 44.24394,-7.58858 l 5.78068,-1.60293 0.60302,11.82277 c 0.33167,6.50252 0.60474,14.84408 0.60684,18.53679 l 0.004,6.71402 -3.99565,1.62678 c -15.77173,6.42123 -35.34011,11.49838 -54.29378,14.08688 -10.21863,1.39556 -48.35236,2.63536 -55.46898,1.8034 z m -51.50502,-238.01361 0.26673,-62.75516 2.16588,-5.3604 c 2.8542,-7.06394 9.30669,-14.11794 15.83633,-17.31259 6.78147,-3.31787 16.38056,-3.55887 23.09864,-0.57994 9.57379,4.2452 17.51352,14.71965 20.47652,27.01354 0.73339,3.0429 1.30003,17.5491 1.60668,41.13166 l 0.47372,36.43089 h 22.86798 22.86799 l 0.35785,-37.37105 c 0.38711,-40.42566 0.48469,-41.27148 6.02409,-52.21055 6.44861,-12.73457 20.41683,-19.54408 33.3132,-16.24018 10.28902,2.63593 17.30373,9.12776 21.75322,20.13178 l 2.1459,5.30699 0.2729,62.28508 0.27289,62.28508 h 23.52399 23.52398 l -0.34615,-65.10553 c -0.30801,-57.93173 -0.53336,-66.08967 -2.04507,-74.03699 -3.29643,-17.32997 -8.2362,-27.25782 -18.92655,-38.03824 -11.40029,-11.49635 -26.96914,-18.14341 -44.60896,-19.04562 -12.57657,-0.64324 -22.19387,1.21164 -32.43525,6.25576 -13.04105,6.42303 -19.85325,13.35826 -29.94452,30.48532 l -5.95059,10.09943 -6.89703,-11.56602 c -11.10094,-18.6158 -21.67628,-27.63929 -38.53102,-32.87693 -9.21513,-2.86361 -28.10022,-3.12357 -37.60609,-0.51765 -15.78313,4.32674 -29.53107,14.17112 -38.4841,27.557 -11.755806,17.5764 -13.763991,36.01584 -12.71232,116.72637 l 0.65233,50.0631 h 23.36005 23.36005 z"
     id="path15194" />
  <path
     style="opacity:1;fill:#5e9dc8;fill-opacity:1;stroke-width:0.940152"
     d="M 180.03914,478.43826 C 157.17842,476.18957 131.00782,471.13665 113.75841,465.64103 70.000224,451.69978 41.34014,416.80585 27.335896,360.42074 19.375497,328.36989 16.407061,296.23944 15.404731,231.27743 14.723128,187.1021 15.889795,156.75913 18.82776,142.2504 26.106854,106.30361 44.676198,76.303869 70.504221,58.764393 90.736643,45.024818 135.24402,35.845991 194.14142,33.266495 c 69.53369,-3.045327 133.97481,3.95533 170.01659,18.470008 18.64251,7.507676 38.15878,26.424931 50.40694,48.859777 9.4202,17.25491 15.55187,39.16878 16.96751,60.63982 2.95797,44.86354 -2.45402,125.08276 -9.80543,145.34115 -6.43864,17.74305 -25.4896,35.84393 -51.40932,48.84548 -32.79562,16.45056 -66.92414,22.29523 -131.04899,22.44275 -40.41463,0.093 -56.5526,-1.39395 -92.00893,-8.47745 -6.73636,-1.3458 -12.45368,-2.05887 -12.90325,-1.6093 -1.27294,1.27294 0.93405,17.7676 3.43779,25.69333 4.43387,14.03568 13.41563,24.31989 27.08103,31.00809 15.12806,7.40407 30.37134,9.7142 64.52177,9.77837 26.79289,0.0503 35.64191,-0.90256 60.81814,-6.54913 5.94678,-1.33375 10.94501,-2.28899 11.10716,-2.12273 0.16216,0.16625 0.60097,8.38792 0.97512,18.27039 l 0.68029,17.96811 -7.88068,3.0254 c -21.77377,8.35896 -45.35238,12.88391 -73.80851,14.16452 -23.71433,1.06722 -24.67216,1.05382 -41.24951,-0.57682 z m -42.57924,-237.52427 0.29511,-63.22523 2.11908,-4.4004 c 3.83736,-7.9685 9.00541,-13.51705 15.62576,-16.77625 5.60134,-2.75753 6.69284,-2.9712 13.43761,-2.63055 4.6756,0.23615 8.70651,1.03139 11.10168,2.19021 8.52221,4.12321 17.18924,16.43201 19.19318,27.2579 0.47857,2.58542 1.1774,20.88313 1.55294,40.66158 l 0.68281,35.96082 h 22.76082 22.76082 l 0.53216,-36.90097 c 0.57605,-39.94393 0.95878,-43.26156 6.07522,-52.66215 3.32208,-6.10375 11.27843,-13.27223 16.83076,-15.16409 14.856,-5.06195 29.70848,1.76629 37.21284,17.10814 l 3.0796,6.29591 0.29491,62.75516 0.29489,62.75515 h 23.44395 23.44393 l -0.0278,-52.88356 c -0.0322,-61.08801 -0.87152,-82.36531 -3.681,-93.3101 -5.04596,-19.6573 -17.4272,-34.85961 -35.30748,-43.35229 -9.07978,-4.31267 -16.18042,-6.00657 -27.73449,-6.61626 -12.43169,-0.65601 -20.74164,0.99998 -31.83885,6.34476 -10.90524,5.25232 -20.69759,15.09084 -29.17039,29.30795 -3.30569,5.54684 -6.26717,10.06537 -6.58106,10.04117 -0.3139,-0.0242 -2.97966,-4.14911 -5.9239,-9.16649 -10.94194,-18.6465 -22.0443,-28.56653 -37.69216,-33.67815 -6.8041,-2.22266 -9.2888,-2.53284 -20.88502,-2.60719 -14.22647,-0.0912 -18.86288,0.82769 -30.06876,5.95942 -12.59253,5.76675 -25.05429,18.07097 -30.996834,30.60495 -8.003924,16.88184 -9.728828,40.24569 -8.52001,115.40368 l 0.706913,43.95211 h 23.343851 23.34386 z"
     id="path15381" />
  <path
     style="opacity:1;fill:#5e9dc8;fill-opacity:1;stroke-width:0.940152"
     d="M 178.15883,478.49297 C 143.34569,474.53846 113.86832,467.41888 96.522219,458.77554 52.739513,436.95915 27.333388,389.44552 19.347106,314.44538 16.821434,290.72649 15.939024,271.87822 15.36544,229.39713 14.538459,168.14881 16.103422,147.07617 23.082224,125.48858 33.396597,93.583032 52.357548,68.471733 76.152325,55.204169 95.878279,44.205312 138.83929,35.927678 189.91074,33.285445 c 75.51486,-3.906837 151.54601,5.404725 182.38952,22.337311 23.67055,12.994757 43.52096,39.631443 53.05817,71.197264 6.10436,20.20393 6.61357,25.22011 6.59546,64.97102 -0.0254,55.6246 -4.50543,102.39064 -11.27525,117.69839 -6.77645,15.32278 -23.99289,31.85193 -45.55793,43.73927 -32.18996,17.74412 -70.4324,24.6468 -136.79214,24.6907 -41.66026,0.0276 -64.08852,-2.25786 -101.77147,-10.3704 -1.98908,-0.42822 -2.11534,-0.1519 -2.11534,4.62949 0,13.27836 5.31537,29.20887 12.93984,38.78152 7.64961,9.60421 23.33164,17.59287 40.44038,20.60093 11.80016,2.07471 42.00014,3.25034 58.91086,2.2933 14.80349,-0.83779 23.84298,-2.13653 43.16971,-6.20236 6.13109,-1.28981 11.2995,-2.19305 11.48536,-2.00719 0.18585,0.18585 0.62756,8.4055 0.98157,18.26588 l 0.64366,17.92797 -7.42826,2.85287 c -17.20137,6.60629 -37.47728,11.36988 -56.76025,13.33514 -17.33906,1.76715 -47.19431,1.99669 -60.6658,0.46642 z m -40.68088,-237.57898 0.25434,-63.22523 2.55357,-5.19944 c 5.92762,-12.06953 15.58581,-18.77444 27.04391,-18.77444 8.91606,0 14.24812,2.11014 20.32583,8.04389 5.69469,5.5598 10.10815,13.87572 11.63386,21.92075 0.52596,2.77336 1.23793,21.06923 1.58215,40.65751 l 0.62587,35.61504 h 22.76496 22.76495 l 0.5,-36.90097 c 0.52827,-38.98767 0.92971,-42.89042 5.28005,-51.33175 2.82555,-5.48265 8.90301,-11.93558 14.1417,-15.0154 3.83599,-2.25516 5.2202,-2.51872 13.2162,-2.5164 7.50174,0.002 9.57727,0.34703 12.96589,2.15424 5.92799,3.16151 11.12705,9.01219 14.80666,16.66241 l 3.25247,6.76216 v 62.18643 62.18643 h 23.63668 23.63667 l -0.56146,-63.69531 c -0.3183,-36.1083 -0.99488,-66.95281 -1.56215,-71.21652 -2.43406,-18.29464 -8.06681,-30.26003 -19.70988,-41.86882 -13.56455,-13.52462 -27.36645,-18.96731 -48.47358,-19.11524 -13.08629,-0.0917 -18.38978,1.18077 -30.08487,7.21841 -10.0773,5.20244 -18.68892,14.00986 -27.13689,27.75387 -3.54945,5.7746 -6.72247,10.48573 -7.05114,10.46918 -0.32868,-0.0165 -3.13601,-4.33308 -6.23851,-9.59231 -10.67841,-18.1016 -24.79767,-29.92302 -40.64366,-34.02913 -7.65288,-1.98306 -28.84199,-2.00738 -36.38851,-0.0418 -11.83951,3.0838 -25.71568,12.13115 -34.05169,22.20192 -15.169095,18.32582 -17.881321,38.771 -16.663665,125.61322 l 0.649229,46.30249 h 23.338346 23.33833 l 0.25434,-63.22523 z"
     id="path15420" />
</svg>
